<?xml version="1.0" encoding="utf-8"?>
<!-- Generator: Adobe Illustrator 25.1.0, SVG Export Plug-In . SVG Version: 6.00 Build 0)  -->
<svg version="1.1" id="Layer_1" xmlns="http://www.w3.org/2000/svg" xmlns:xlink="http://www.w3.org/1999/xlink" x="0px" y="0px"
	 viewBox="0 0 576 90" style="enable-background:new 0 0 576 90;" xml:space="preserve">
<style type="text/css">
	.st0{fill:#F9F9FA;stroke:#000000;stroke-miterlimit:10;}
	.st1{fill:none;stroke:#000000;stroke-miterlimit:10;}
	.st2{font-family:'Helvetica';}
	.st3{font-size:14px;}
	.st4{fill:#BBBBBB;}
	.st5{fill:none;stroke:#000000;stroke-width:0.5;stroke-miterlimit:10;}
	.st6{fill:#009988;}
	.st7{font-size:6px;}
	.st8{font-size:7px;}
	.st9{fill:none;stroke:#000000;stroke-width:0.5;stroke-linecap:round;stroke-miterlimit:10;}
	.st10{fill:none;stroke:#CB3627;stroke-width:1.5;stroke-miterlimit:10;}
	.st11{fill:#EE7733;}
	.st12{stroke:#009988;stroke-width:2;stroke-linecap:round;stroke-miterlimit:10;}
	.st13{stroke:#EE7733;stroke-width:2;stroke-linecap:round;stroke-miterlimit:10;}
	.st14{fill:#BBBBBB;stroke:#000000;stroke-width:0.5;stroke-miterlimit:10;}
	.st15{fill:none;stroke:#000000;stroke-width:2;stroke-miterlimit:10;}
</style>
<rect x="0.5" y="0.48" class="st0" width="575.01" height="89.05"/>
<line class="st1" x1="287.98" y1="90" x2="287.98" y2="0"/>
<line class="st1" x1="144.82" y1="90" x2="144.82" y2="0"/>
<line class="st1" x1="431.14" y1="90" x2="431.14" y2="0"/>
<text transform="matrix(1 0 0 1 192.3995 21.5202)" class="st2 st3">scaffold</text>
<text transform="matrix(1 0 0 1 341.376 21.5199)" class="st2 st3">patch</text>
<g>
	<g>
		<path class="st4" d="M277.04,66.26H155.76c-1.03,0-1.87-0.84-1.87-1.87v-0.78c0-1.03,0.84-1.87,1.87-1.87h121.29
			c1.03,0,1.87,0.84,1.87,1.87v0.78C278.91,65.43,278.08,66.26,277.04,66.26z"/>
		<path class="st5" d="M277.04,66.26H155.76c-1.03,0-1.87-0.84-1.87-1.87v-0.78c0-1.03,0.84-1.87,1.87-1.87h121.29
			c1.03,0,1.87,0.84,1.87,1.87v0.78C278.91,65.43,278.08,66.26,277.04,66.26z"/>
	</g>
	<g>
		<path class="st6" d="M183.49,56.03h-27.74c-1.03,0-1.87-0.84-1.87-1.87v-0.78c0-1.03,0.84-1.87,1.87-1.87h27.74
			c1.03,0,1.87,0.84,1.87,1.87v0.78C185.36,55.19,184.53,56.03,183.49,56.03z"/>
		<path class="st5" d="M183.49,56.03h-27.74c-1.03,0-1.87-0.84-1.87-1.87v-0.78c0-1.03,0.84-1.87,1.87-1.87h27.74
			c1.03,0,1.87,0.84,1.87,1.87v0.78C185.36,55.19,184.53,56.03,183.49,56.03z"/>
	</g>
	<g>
		<path class="st6" d="M230.27,56.03h-27.74c-1.03,0-1.87-0.84-1.87-1.87v-0.78c0-1.03,0.84-1.87,1.87-1.87h27.74
			c1.03,0,1.87,0.84,1.87,1.87v0.78C232.14,55.19,231.3,56.03,230.27,56.03z"/>
		<path class="st5" d="M230.27,56.03h-27.74c-1.03,0-1.87-0.84-1.87-1.87v-0.78c0-1.03,0.84-1.87,1.87-1.87h27.74
			c1.03,0,1.87,0.84,1.87,1.87v0.78C232.14,55.19,231.3,56.03,230.27,56.03z"/>
	</g>
	<g>
		<path class="st6" d="M277.04,56.03h-27.74c-1.03,0-1.87-0.84-1.87-1.87v-0.78c0-1.03,0.84-1.87,1.87-1.87h27.74
			c1.03,0,1.87,0.84,1.87,1.87v0.78C278.91,55.19,278.08,56.03,277.04,56.03z"/>
		<path class="st5" d="M277.04,56.03h-27.74c-1.03,0-1.87-0.84-1.87-1.87v-0.78c0-1.03,0.84-1.87,1.87-1.87h27.74
			c1.03,0,1.87,0.84,1.87,1.87v0.78C278.91,55.19,278.08,56.03,277.04,56.03z"/>
	</g>
	<text transform="matrix(1 0 0 1 186.5475 56.0292)" class="st2 st7">NNN</text>
	<text transform="matrix(1 0 0 1 233.3657 56.029)" class="st2 st7">NNN</text>
	<text transform="matrix(1 0 0 1 153.8891 48.4657)" class="st2 st8">query</text>
	<text transform="matrix(1 0 0 1 153.8892 73.3946)" class="st2 st8">reference</text>
</g>
<g>
	<g>
		<path class="st4" d="M133.39,67.18H12.1c-1.03,0-1.87-0.84-1.87-1.87v-0.78c0-1.03,0.84-1.87,1.87-1.87h121.29
			c1.03,0,1.87,0.84,1.87,1.87v0.78C135.26,66.34,134.42,67.18,133.39,67.18z"/>
		<path class="st5" d="M133.39,67.18H12.1c-1.03,0-1.87-0.84-1.87-1.87v-0.78c0-1.03,0.84-1.87,1.87-1.87h121.29
			c1.03,0,1.87,0.84,1.87,1.87v0.78C135.26,66.34,134.42,67.18,133.39,67.18z"/>
	</g>
	<g>
		<path class="st6" d="M39.84,56.94H12.1c-1.03,0-1.87-0.84-1.87-1.87v-0.78c0-1.03,0.84-1.87,1.87-1.87h27.74
			c1.03,0,1.87,0.84,1.87,1.87v0.78C41.71,56.11,40.87,56.94,39.84,56.94z"/>
		<path class="st5" d="M39.84,56.94H12.1c-1.03,0-1.87-0.84-1.87-1.87v-0.78c0-1.03,0.84-1.87,1.87-1.87h27.74
			c1.03,0,1.87,0.84,1.87,1.87v0.78C41.71,56.11,40.87,56.94,39.84,56.94z"/>
	</g>
	<line class="st9" x1="74.61" y1="54.69" x2="90.36" y2="43.66"/>
	<line class="st9" x1="106.01" y1="54.69" x2="90.36" y2="43.66"/>
	<g>
		<path class="st6" d="M74.61,56.94H46.88c-1.03,0-1.87-0.84-1.87-1.87v-0.78c0-1.03,0.84-1.87,1.87-1.87h27.74"/>
		<path class="st5" d="M74.61,56.94H46.88c-1.03,0-1.87-0.84-1.87-1.87v-0.78c0-1.03,0.84-1.87,1.87-1.87h27.74"/>
	</g>
	<g>
		<path class="st6" d="M105.65,52.43h27.74c1.03,0,1.87,0.84,1.87,1.87v0.78c0,1.03-0.84,1.87-1.87,1.87h-27.74"/>
		<path class="st5" d="M105.65,52.43h27.74c1.03,0,1.87,0.84,1.87,1.87v0.78c0,1.03-0.84,1.87-1.87,1.87h-27.74"/>
	</g>
	<g>
		<line class="st10" x1="87.45" y1="47.56" x2="93.26" y2="41.75"/>
		<line class="st10" x1="93.26" y1="47.56" x2="87.45" y2="41.75"/>
	</g>
	<text transform="matrix(1 0 0 1 10.2329 49.171)" class="st2 st8">query</text>
	<text transform="matrix(1 0 0 1 10.233 74.0988)" class="st2 st8">reference</text>
</g>
<g>
	<g>
		<path class="st4" d="M419.14,66.26H297.86c-1.03,0-1.87-0.84-1.87-1.87v-0.78c0-1.03,0.84-1.87,1.87-1.87h121.29
			c1.03,0,1.87,0.84,1.87,1.87v0.78C421.01,65.42,420.18,66.26,419.14,66.26z"/>
		<path class="st5" d="M419.14,66.26H297.86c-1.03,0-1.87-0.84-1.87-1.87v-0.78c0-1.03,0.84-1.87,1.87-1.87h121.29
			c1.03,0,1.87,0.84,1.87,1.87v0.78C421.01,65.42,420.18,66.26,419.14,66.26z"/>
	</g>
	<g>
		<path class="st6" d="M419.14,56.03H297.86c-1.03,0-1.87-0.84-1.87-1.87v-0.78c0-1.03,0.84-1.87,1.87-1.87h121.29
			c1.03,0,1.87,0.84,1.87,1.87v0.78C421.01,55.19,420.18,56.03,419.14,56.03z"/>
		<path class="st5" d="M419.14,56.03H297.86c-1.03,0-1.87-0.84-1.87-1.87v-0.78c0-1.03,0.84-1.87,1.87-1.87h121.29
			c1.03,0,1.87,0.84,1.87,1.87v0.78C421.01,55.19,420.18,56.03,419.14,56.03z"/>
	</g>
	<rect x="327.46" y="51.78" class="st4" width="15.3" height="3.98"/>
	<rect x="374.24" y="51.78" class="st4" width="15.3" height="3.98"/>
	<text transform="matrix(1 0 0 1 295.9882 48.4658)" class="st2 st8">target</text>
	<text transform="matrix(1 0 0 1 295.9882 73.3946)" class="st2 st8">query</text>
</g>
<text transform="matrix(1 0 0 1 50.3163 21.5199)" class="st2 st3">correct</text>
<text transform="matrix(1 0 0 1 482.7045 21.5199)" class="st2 st3">merge</text>
<g>
	<g>
		<path class="st6" d="M563.88,70.02H442.59c-1.03,0-1.87-0.84-1.87-1.87v-0.78c0-1.03,0.84-1.87,1.87-1.87h121.29
			c1.03,0,1.87,0.84,1.87,1.87v0.78C565.75,69.18,564.91,70.02,563.88,70.02z"/>
		<path class="st5" d="M563.88,70.02H442.59c-1.03,0-1.87-0.84-1.87-1.87v-0.78c0-1.03,0.84-1.87,1.87-1.87h121.29
			c1.03,0,1.87,0.84,1.87,1.87v0.78C565.75,69.18,564.91,70.02,563.88,70.02z"/>
	</g>
	<g>
		<path class="st11" d="M563.88,78.79H442.59c-1.03,0-1.87-0.84-1.87-1.87v-0.78c0-1.03,0.84-1.87,1.87-1.87h121.29
			c1.03,0,1.87,0.84,1.87,1.87v0.78C565.75,77.95,564.91,78.79,563.88,78.79z"/>
		<path class="st5" d="M563.88,78.79H442.59c-1.03,0-1.87-0.84-1.87-1.87v-0.78c0-1.03,0.84-1.87,1.87-1.87h121.29
			c1.03,0,1.87,0.84,1.87,1.87v0.78C565.75,77.95,564.91,78.79,563.88,78.79z"/>
	</g>
	<line class="st12" x1="472.2" y1="46.5" x2="483.36" y2="36.5"/>
	<line class="st13" x1="483.36" y1="56.5" x2="472.2" y2="46.5"/>
	<line class="st12" x1="514.83" y1="36.5" x2="526" y2="46.5"/>
	<line class="st13" x1="514.83" y1="56.5" x2="526" y2="46.5"/>
	<g>
		<circle class="st14" cx="529.72" cy="46.5" r="3.72"/>
		<circle class="st14" cx="553.75" cy="46.5" r="3.72"/>
		<line class="st14" x1="533.44" y1="46.5" x2="550.03" y2="46.5"/>
	</g>
	<g>
		<circle class="st14" cx="487.08" cy="56.5" r="3.72"/>
		<circle class="st14" cx="511.11" cy="56.5" r="3.72"/>
		<line class="st14" x1="490.8" y1="56.5" x2="507.39" y2="56.5"/>
	</g>
	<g>
		<circle class="st14" cx="487.08" cy="36.5" r="3.72"/>
		<circle class="st14" cx="511.11" cy="36.5" r="3.72"/>
		<line class="st14" x1="490.8" y1="36.5" x2="507.39" y2="36.5"/>
	</g>
	<g>
		<circle class="st14" cx="444.45" cy="46.5" r="3.72"/>
		<circle class="st14" cx="468.48" cy="46.5" r="3.72"/>
		<line class="st14" x1="448.17" y1="46.5" x2="464.76" y2="46.5"/>
	</g>
	<text transform="matrix(1 0 0 1 440.726 62.499)" class="st2 st8">map 1</text>
	<text transform="matrix(1 0 0 1 440.7261 85.3839)" class="st2 st8">map 2</text>
</g>
<rect x="145.57" y="2.02" class="st15" width="141.91" height="86.57"/>
</svg>
